<svg width="25" height="24" viewBox="0 0 25 24" fill="none" xmlns="http://www.w3.org/2000/svg">
  <path
    d="M14.8702 6V10.5C14.8702 11.05 14.4202 11.5 13.8702 11.5H10.5402C9.9902 11.5 9.5402 11.05 9.5402 10.5V6C9.5402 5.45 9.9902 5 10.5402 5H13.8702C14.4202 5 14.8702 5.45 14.8702 6ZM16.8702 11.5H20.2002C20.7502 11.5 21.2002 11.05 21.2002 10.5V6C21.2002 5.45 20.7502 5 20.2002 5H16.8702C16.3202 5 15.8702 5.45 15.8702 6V10.5C15.8702 11.05 16.3102 11.5 16.8702 11.5ZM14.8702 18V13.5C14.8702 12.95 14.4202 12.5 13.8702 12.5H10.5402C9.9902 12.5 9.5402 12.95 9.5402 13.5V18C9.5402 18.55 9.9902 19 10.5402 19H13.8702C14.4202 19 14.8702 18.55 14.8702 18ZM15.8702 13.5V18C15.8702 18.55 16.3202 19 16.8702 19H20.2002C20.7502 19 21.2002 18.55 21.2002 18V13.5C21.2002 12.95 20.7502 12.5 20.2002 12.5H16.8702C16.3102 12.5 15.8702 12.95 15.8702 13.5ZM7.5302 12.5H4.2002C3.6502 12.5 3.2002 12.95 3.2002 13.5V18C3.2002 18.55 3.6502 19 4.2002 19H7.5302C8.0802 19 8.5302 18.55 8.5302 18V13.5C8.5302 12.95 8.0902 12.5 7.5302 12.5ZM8.5302 10.5V6C8.5302 5.45 8.0802 5 7.5302 5H4.2002C3.6502 5 3.2002 5.45 3.2002 6V10.5C3.2002 11.05 3.6502 11.5 4.2002 11.5H7.5302C8.0902 11.5 8.5302 11.05 8.5302 10.5Z"
    fill="currentColor" />
</svg>