<svg width="25" height="24" viewBox="0 0 25 24" fill="none" xmlns="http://www.w3.org/2000/svg">
  <path
    d="M4.2002 14H6.2002C6.7502 14 7.2002 13.55 7.2002 13V11C7.2002 10.45 6.7502 10 6.2002 10H4.2002C3.6502 10 3.2002 10.45 3.2002 11V13C3.2002 13.55 3.6502 14 4.2002 14ZM4.2002 19H6.2002C6.7502 19 7.2002 18.55 7.2002 18V16C7.2002 15.45 6.7502 15 6.2002 15H4.2002C3.6502 15 3.2002 15.45 3.2002 16V18C3.2002 18.55 3.6502 19 4.2002 19ZM4.2002 9H6.2002C6.7502 9 7.2002 8.55 7.2002 8V6C7.2002 5.45 6.7502 5 6.2002 5H4.2002C3.6502 5 3.2002 5.45 3.2002 6V8C3.2002 8.55 3.6502 9 4.2002 9ZM9.2002 14H20.2002C20.7502 14 21.2002 13.55 21.2002 13V11C21.2002 10.45 20.7502 10 20.2002 10H9.2002C8.6502 10 8.2002 10.45 8.2002 11V13C8.2002 13.55 8.6502 14 9.2002 14ZM9.2002 19H20.2002C20.7502 19 21.2002 18.55 21.2002 18V16C21.2002 15.45 20.7502 15 20.2002 15H9.2002C8.6502 15 8.2002 15.45 8.2002 16V18C8.2002 18.55 8.6502 19 9.2002 19ZM8.2002 6V8C8.2002 8.55 8.6502 9 9.2002 9H20.2002C20.7502 9 21.2002 8.55 21.2002 8V6C21.2002 5.45 20.7502 5 20.2002 5H9.2002C8.6502 5 8.2002 5.45 8.2002 6Z"
    fill="currentColor" />
</svg>